STARTFONT 2.1
FONT -dse-apple2-Medium-R-Condensed--16-160-75-75-C-35-ISO10646-1
SIZE 16 75 75
FONTBOUNDINGBOX 7 16 0 -2

STARTPROPERTIES 25
FONTNAME_REGISTRY ""
FOUNDRY "dse"
FAMILY_NAME "apple2"
WEIGHT_NAME "Medium"
SLANT "R"
SETWIDTH_NAME "Condensed"
ADD_STYLE_NAME ""
PIXEL_SIZE 16
POINT_SIZE 160
RESOLUTION_X 75
RESOLUTION_Y 75
SPACING "C"
AVERAGE_WIDTH 70
CHARSET_REGISTRY "ISO10646"
CHARSET_ENCODING "1"
COPYRIGHT "Public domain font.  Share and enjoy."
DESTINATION 1
CAP_HEIGHT 14
X_HEIGHT 10
_GBDFED_INFO "Edited with gbdfed 1.3."
WEIGHT 10
QUAD_WIDTH 7
DEFAULT_CHAR 0
FONT_DESCENT 2
FONT_ASCENT 14
ENDPROPERTIES

CHARS 39

STARTCHAR hyphen
ENCODING 45
SWIDTH 420 0
DWIDTH 7 0
BBX 7 16 0 -2
BITMAP
00
00
00
00
00
00
7c
7c
00
00
00
00
00
00
00
00
ENDCHAR

STARTCHAR period
ENCODING 46
SWIDTH 420 0
DWIDTH 7 0
BBX 7 16 0 -2
BITMAP
00
00
00
00
00
00
00
00
00
00
00
00
10
10
00
00
ENDCHAR

STARTCHAR slash
ENCODING 47
SWIDTH 420 0
DWIDTH 7 0
BBX 7 16 0 -2
BITMAP
00
00
04
04
08
08
10
10
20
20
40
40
00
00
00
00
ENDCHAR

STARTCHAR zero
ENCODING 48
SWIDTH 420 0
DWIDTH 7 0
BBX 7 16 0 -2
BITMAP
38
38
44
44
4c
4c
54
54
64
64
44
44
38
38
00
00
ENDCHAR

STARTCHAR one
ENCODING 49
SWIDTH 420 0
DWIDTH 7 0
BBX 7 16 0 -2
BITMAP
10
10
30
30
10
10
10
10
10
10
10
10
38
38
00
00
ENDCHAR

STARTCHAR two
ENCODING 50
SWIDTH 420 0
DWIDTH 7 0
BBX 7 16 0 -2
BITMAP
38
38
44
44
04
04
18
18
20
20
40
40
7c
7c
00
00
ENDCHAR

STARTCHAR three
ENCODING 51
SWIDTH 420 0
DWIDTH 7 0
BBX 7 16 0 -2
BITMAP
7c
7c
04
04
08
08
18
18
04
04
44
44
38
38
00
00
ENDCHAR

STARTCHAR four
ENCODING 52
SWIDTH 420 0
DWIDTH 7 0
BBX 7 16 0 -2
BITMAP
08
08
18
18
28
28
48
48
7c
7c
08
08
08
08
00
00
ENDCHAR

STARTCHAR five
ENCODING 53
SWIDTH 420 0
DWIDTH 7 0
BBX 7 16 0 -2
BITMAP
7c
7c
40
40
78
78
04
04
04
04
44
44
38
38
00
00
ENDCHAR

STARTCHAR six
ENCODING 54
SWIDTH 420 0
DWIDTH 7 0
BBX 7 16 0 -2
BITMAP
1c
1c
20
20
40
40
78
78
44
44
44
44
38
38
00
00
ENDCHAR

STARTCHAR seven
ENCODING 55
SWIDTH 420 0
DWIDTH 7 0
BBX 7 16 0 -2
BITMAP
7c
7c
04
04
08
08
10
10
20
20
20
20
20
20
00
00
ENDCHAR

STARTCHAR eight
ENCODING 56
SWIDTH 420 0
DWIDTH 7 0
BBX 7 16 0 -2
BITMAP
38
38
44
44
44
44
38
38
44
44
44
44
38
38
00
00
ENDCHAR

STARTCHAR nine
ENCODING 57
SWIDTH 420 0
DWIDTH 7 0
BBX 7 16 0 -2
BITMAP
38
38
44
44
44
44
3c
3c
04
04
08
08
70
70
00
00
ENDCHAR

STARTCHAR A
ENCODING 65
SWIDTH 420 0
DWIDTH 7 0
BBX 7 16 0 -2
BITMAP
10
10
28
28
44
44
44
44
7c
7c
44
44
44
44
00
00
ENDCHAR

STARTCHAR B
ENCODING 66
SWIDTH 420 0
DWIDTH 7 0
BBX 7 16 0 -2
BITMAP
78
78
44
44
44
44
78
78
44
44
44
44
78
78
00
00
ENDCHAR

STARTCHAR C
ENCODING 67
SWIDTH 420 0
DWIDTH 7 0
BBX 7 16 0 -2
BITMAP
38
38
44
44
40
40
40
40
40
40
44
44
38
38
00
00
ENDCHAR

STARTCHAR D
ENCODING 68
SWIDTH 420 0
DWIDTH 7 0
BBX 7 16 0 -2
BITMAP
78
78
44
44
44
44
44
44
44
44
44
44
78
78
00
00
ENDCHAR

STARTCHAR E
ENCODING 69
SWIDTH 420 0
DWIDTH 7 0
BBX 7 16 0 -2
BITMAP
7c
7c
40
40
40
40
78
78
40
40
40
40
7c
7c
00
00
ENDCHAR

STARTCHAR F
ENCODING 70
SWIDTH 420 0
DWIDTH 7 0
BBX 7 16 0 -2
BITMAP
7c
7c
40
40
40
40
78
78
40
40
40
40
40
40
00
00
ENDCHAR

STARTCHAR G
ENCODING 71
SWIDTH 420 0
DWIDTH 7 0
BBX 7 16 0 -2
BITMAP
38
38
44
44
40
40
40
40
4c
4c
44
44
3c
3c
00
00
ENDCHAR

STARTCHAR H
ENCODING 72
SWIDTH 420 0
DWIDTH 7 0
BBX 7 16 0 -2
BITMAP
44
44
44
44
44
44
7c
7c
44
44
44
44
44
44
00
00
ENDCHAR

STARTCHAR I
ENCODING 73
SWIDTH 420 0
DWIDTH 7 0
BBX 7 16 0 -2
BITMAP
38
38
10
10
10
10
10
10
10
10
10
10
38
38
00
00
ENDCHAR

STARTCHAR J
ENCODING 74
SWIDTH 420 0
DWIDTH 7 0
BBX 7 16 0 -2
BITMAP
04
04
04
04
04
04
04
04
04
04
44
44
38
38
00
00
ENDCHAR

STARTCHAR K
ENCODING 75
SWIDTH 420 0
DWIDTH 7 0
BBX 7 16 0 -2
BITMAP
44
44
48
48
50
50
60
60
50
50
48
48
44
44
00
00
ENDCHAR

STARTCHAR L
ENCODING 76
SWIDTH 420 0
DWIDTH 7 0
BBX 7 16 0 -2
BITMAP
40
40
40
40
40
40
40
40
40
40
40
40
7c
7c
00
00
ENDCHAR

STARTCHAR M
ENCODING 77
SWIDTH 420 0
DWIDTH 7 0
BBX 7 16 0 -2
BITMAP
44
44
6c
6c
54
54
54
54
44
44
44
44
44
44
00
00
ENDCHAR

STARTCHAR N
ENCODING 78
SWIDTH 420 0
DWIDTH 7 0
BBX 7 16 0 -2
BITMAP
44
44
44
44
64
64
54
54
4c
4c
44
44
44
44
00
00
ENDCHAR

STARTCHAR O
ENCODING 79
SWIDTH 420 0
DWIDTH 7 0
BBX 7 16 0 -2
BITMAP
38
38
44
44
44
44
44
44
44
44
44
44
38
38
00
00
ENDCHAR

STARTCHAR P
ENCODING 80
SWIDTH 420 0
DWIDTH 7 0
BBX 7 16 0 -2
BITMAP
78
78
44
44
44
44
78
78
40
40
40
40
40
40
00
00
ENDCHAR

STARTCHAR Q
ENCODING 81
SWIDTH 420 0
DWIDTH 7 0
BBX 7 16 0 -2
BITMAP
38
38
44
44
44
44
44
44
54
54
48
48
34
34
00
00
ENDCHAR

STARTCHAR R
ENCODING 82
SWIDTH 420 0
DWIDTH 7 0
BBX 7 16 0 -2
BITMAP
78
78
44
44
44
44
78
78
50
50
48
48
44
44
00
00
ENDCHAR

STARTCHAR S
ENCODING 83
SWIDTH 420 0
DWIDTH 7 0
BBX 7 16 0 -2
BITMAP
38
38
44
44
40
40
38
38
04
04
44
44
38
38
00
00
ENDCHAR

STARTCHAR T
ENCODING 84
SWIDTH 420 0
DWIDTH 7 0
BBX 7 16 0 -2
BITMAP
7c
7c
10
10
10
10
10
10
10
10
10
10
10
10
00
00
ENDCHAR

STARTCHAR U
ENCODING 85
SWIDTH 420 0
DWIDTH 7 0
BBX 7 16 0 -2
BITMAP
44
44
44
44
44
44
44
44
44
44
44
44
38
38
00
00
ENDCHAR

STARTCHAR V
ENCODING 86
SWIDTH 420 0
DWIDTH 7 0
BBX 7 16 0 -2
BITMAP
44
44
44
44
44
44
44
44
44
44
28
28
10
10
00
00
ENDCHAR

STARTCHAR W
ENCODING 87
SWIDTH 420 0
DWIDTH 7 0
BBX 7 16 0 -2
BITMAP
44
44
44
44
44
44
54
54
54
54
6c
6c
44
44
00
00
ENDCHAR

STARTCHAR X
ENCODING 88
SWIDTH 420 0
DWIDTH 7 0
BBX 7 16 0 -2
BITMAP
44
44
44
44
28
28
10
10
28
28
44
44
44
44
00
00
ENDCHAR

STARTCHAR Y
ENCODING 89
SWIDTH 420 0
DWIDTH 7 0
BBX 7 16 0 -2
BITMAP
44
44
44
44
28
28
10
10
10
10
10
10
10
10
00
00
ENDCHAR

STARTCHAR Z
ENCODING 90
SWIDTH 420 0
DWIDTH 7 0
BBX 7 16 0 -2
BITMAP
7c
7c
04
04
08
08
10
10
20
20
40
40
7c
7c
00
00
ENDCHAR

ENDFONT
