STARTFONT 2.1
FONT -dse-dotmatrixnumberone-semicondensed-R-Normal--32-320-75-75-C-53-ISO10646-1

SIZE 32 75 75
FONTBOUNDINGBOX 21 32 0 -4

STARTPROPERTIES 25
FONTNAME_REGISTRY ""
FOUNDRY "dse"
FAMILY_NAME "dotmatrixnumberone"
WEIGHT_NAME "Medium"
SLANT "R"
SETWIDTH_NAME "Normal"
ADD_STYLE_NAME ""
PIXEL_SIZE 32
POINT_SIZE 80
RESOLUTION_X 75
RESOLUTION_Y 75
SPACING "C"
AVERAGE_WIDTH 53
CHARSET_REGISTRY "ISO10646"
CHARSET_ENCODING "1"
COPYRIGHT "Public domain font.  Share and enjoy."
DESTINATION 1
CAP_HEIGHT 28
X_HEIGHT 20
_GBDFED_INFO "Edited with gbdfed 1.3."
WEIGHT 10
QUAD_WIDTH 21
DEFAULT_CHAR 0
FONT_DESCENT 4
FONT_ASCENT 28
ENDPROPERTIES

CHARS 41

STARTCHAR percent
ENCODING 37
SWIDTH 672 0
DWIDTH 21 0
BBX 21 32 0 -4
BITMAP
000000
1f8000
3FC000
1f8000
000000
1f81c0
3FC3E0
1f81c0
000000
000e00
001F00
000e00
000000
007000
00F800
007000
000000
038000
07C000
038000
000000
1c0fc0
3E1FE0
1c0fc0
000000
000fc0
001FE0
000fc0
000000
000000
000000
000000
ENDCHAR

STARTCHAR hyphen
ENCODING 45
SWIDTH 672 0
DWIDTH 21 0
BBX 21 32 0 -4
BITMAP
000000
000000
000000
000000
000000
000000
000000
000000
000000
000000
000000
000000
000000
1fffc0
3FFFE0
1fffc0
000000
000000
000000
000000
000000
000000
000000
000000
000000
000000
000000
000000
000000
000000
000000
000000
ENDCHAR

STARTCHAR period
ENCODING 46
SWIDTH 672 0
DWIDTH 21 0
BBX 21 32 0 -4
BITMAP
000000
000000
000000
000000
000000
000000
000000
000000
000000
000000
000000
000000
000000
000000
000000
000000
000000
000000
000000
000000
000000
000000
000000
000000
000000
007000
00F800
007000
000000
000000
000000
000000
ENDCHAR

STARTCHAR slash
ENCODING 47
SWIDTH 672 0
DWIDTH 21 0
BBX 21 32 0 -4
BITMAP
000000
000000
000000
000000
000000
0001c0
0003E0
0001c0
000000
000e00
001F00
000e00
000000
007000
00F800
007000
000000
038000
07C000
038000
000000
1c0000
3E0000
1c0000
000000
000000
000000
000000
000000
000000
000000
000000
ENDCHAR

STARTCHAR zero
ENCODING 48
SWIDTH 672 0
DWIDTH 21 0
BBX 21 32 0 -4
BITMAP
000000
03fe00
07FF00
03fe00
000000
1c01c0
3E03E0
1c01c0
000000
1c0fc0
3E1FE0
1c0fc0
000000
1c71c0
3EFBE0
1c71c0
000000
1f81c0
3FC3E0
1f81c0
000000
1c01c0
3E03E0
1c01c0
000000
03fe00
07FF00
03fe00
000000
000000
000000
000000
ENDCHAR

STARTCHAR one
ENCODING 49
SWIDTH 672 0
DWIDTH 21 0
BBX 21 32 0 -4
BITMAP
000000
007000
00F800
007000
000000
03f000
07F800
03f000
000000
007000
00F800
007000
000000
007000
00F800
007000
000000
007000
00F800
007000
000000
007000
00F800
007000
000000
03fe00
07FF00
03fe00
000000
000000
000000
000000
ENDCHAR

STARTCHAR two
ENCODING 50
SWIDTH 672 0
DWIDTH 21 0
BBX 21 32 0 -4
BITMAP
000000
03fe00
07FF00
03fe00
000000
1c01c0
3E03E0
1c01c0
000000
0001c0
0003E0
0001c0
000000
007e00
00FF00
007e00
000000
038000
07C000
038000
000000
1c0000
3E0000
1c0000
000000
1fffc0
3FFFE0
1fffc0
000000
000000
000000
000000
ENDCHAR

STARTCHAR three
ENCODING 51
SWIDTH 672 0
DWIDTH 21 0
BBX 21 32 0 -4
BITMAP
000000
1fffc0
3FFFE0
1fffc0
000000
0001c0
0003E0
0001c0
000000
000e00
001F00
000e00
000000
007e00
00FF00
007e00
000000
0001c0
0003E0
0001c0
000000
1c01c0
3E03E0
1c01c0
000000
03fe00
07FF00
03fe00
000000
000000
000000
000000
ENDCHAR

STARTCHAR four
ENCODING 52
SWIDTH 672 0
DWIDTH 21 0
BBX 21 32 0 -4
BITMAP
000000
000e00
001F00
000e00
000000
007e00
00FF00
007e00
000000
038e00
07DF00
038e00
000000
1c0e00
3E1F00
1c0e00
000000
1fffc0
3FFFE0
1fffc0
000000
000e00
001F00
000e00
000000
000e00
001F00
000e00
000000
000000
000000
000000
ENDCHAR

STARTCHAR five
ENCODING 53
SWIDTH 672 0
DWIDTH 21 0
BBX 21 32 0 -4
BITMAP
000000
1fffc0
3FFFE0
1fffc0
000000
1c0000
3E0000
1c0000
000000
1ffe00
3FFF00
1ffe00
000000
0001c0
0003E0
0001c0
000000
0001c0
0003E0
0001c0
000000
1c01c0
3E03E0
1c01c0
000000
03fe00
07FF00
03fe00
000000
000000
000000
000000
ENDCHAR

STARTCHAR six
ENCODING 54
SWIDTH 672 0
DWIDTH 21 0
BBX 21 32 0 -4
BITMAP
000000
007fc0
00FFE0
007fc0
000000
038000
07C000
038000
000000
1c0000
3E0000
1c0000
000000
1ffe00
3FFF00
1ffe00
000000
1c01c0
3E03E0
1c01c0
000000
1c01c0
3E03E0
1c01c0
000000
03fe00
07FF00
03fe00
000000
000000
000000
000000
ENDCHAR

STARTCHAR seven
ENCODING 55
SWIDTH 672 0
DWIDTH 21 0
BBX 21 32 0 -4
BITMAP
000000
1fffc0
3FFFE0
1fffc0
000000
0001c0
0003E0
0001c0
000000
000e00
001F00
000e00
000000
007000
00F800
007000
000000
038000
07C000
038000
000000
038000
07C000
038000
000000
038000
07C000
038000
000000
000000
000000
000000
ENDCHAR

STARTCHAR eight
ENCODING 56
SWIDTH 672 0
DWIDTH 21 0
BBX 21 32 0 -4
BITMAP
000000
03fe00
07FF00
03fe00
000000
1c01c0
3E03E0
1c01c0
000000
1c01c0
3E03E0
1c01c0
000000
03fe00
07FF00
03fe00
000000
1c01c0
3E03E0
1c01c0
000000
1c01c0
3E03E0
1c01c0
000000
03fe00
07FF00
03fe00
000000
000000
000000
000000
ENDCHAR

STARTCHAR nine
ENCODING 57
SWIDTH 672 0
DWIDTH 21 0
BBX 21 32 0 -4
BITMAP
000000
03fe00
07FF00
03fe00
000000
1c01c0
3E03E0
1c01c0
000000
1c01c0
3E03E0
1c01c0
000000
03ffc0
07FFE0
03ffc0
000000
0001c0
0003E0
0001c0
000000
000e00
001F00
000e00
000000
1ff000
3FF800
1ff000
000000
000000
000000
000000
ENDCHAR

STARTCHAR colon
ENCODING 58
SWIDTH 672 0
DWIDTH 21 0
BBX 21 32 0 -4
BITMAP
000000
000000
000000
000000
000000
000000
000000
000000
000000
007000
00F800
007000
000000
000000
000000
000000
000000
007000
00F800
007000
000000
000000
000000
000000
000000
000000
000000
000000
000000
000000
000000
000000
ENDCHAR

STARTCHAR A
ENCODING 65
SWIDTH 672 0
DWIDTH 21 0
BBX 21 32 0 -4
BITMAP
000000
007000
00F800
007000
000000
038e00
07DF00
038e00
000000
1c01c0
3E03E0
1c01c0
000000
1c01c0
3E03E0
1c01c0
000000
1fffc0
3FFFE0
1fffc0
000000
1c01c0
3E03E0
1c01c0
000000
1c01c0
3E03E0
1c01c0
000000
000000
000000
000000
ENDCHAR

STARTCHAR B
ENCODING 66
SWIDTH 672 0
DWIDTH 21 0
BBX 21 32 0 -4
BITMAP
000000
1ffe00
3FFF00
1ffe00
000000
1c01c0
3E03E0
1c01c0
000000
1c01c0
3E03E0
1c01c0
000000
1ffe00
3FFF00
1ffe00
000000
1c01c0
3E03E0
1c01c0
000000
1c01c0
3E03E0
1c01c0
000000
1ffe00
3FFF00
1ffe00
000000
000000
000000
000000
ENDCHAR

STARTCHAR C
ENCODING 67
SWIDTH 672 0
DWIDTH 21 0
BBX 21 32 0 -4
BITMAP
000000
03fe00
07FF00
03fe00
000000
1c01c0
3E03E0
1c01c0
000000
1c0000
3E0000
1c0000
000000
1c0000
3E0000
1c0000
000000
1c0000
3E0000
1c0000
000000
1c01c0
3E03E0
1c01c0
000000
03fe00
07FF00
03fe00
000000
000000
000000
000000
ENDCHAR

STARTCHAR D
ENCODING 68
SWIDTH 672 0
DWIDTH 21 0
BBX 21 32 0 -4
BITMAP
000000
1ffe00
3FFF00
1ffe00
000000
1c01c0
3E03E0
1c01c0
000000
1c01c0
3E03E0
1c01c0
000000
1c01c0
3E03E0
1c01c0
000000
1c01c0
3E03E0
1c01c0
000000
1c01c0
3E03E0
1c01c0
000000
1ffe00
3FFF00
1ffe00
000000
000000
000000
000000
ENDCHAR

STARTCHAR E
ENCODING 69
SWIDTH 672 0
DWIDTH 21 0
BBX 21 32 0 -4
BITMAP
000000
1fffc0
3FFFE0
1fffc0
000000
1c0000
3E0000
1c0000
000000
1c0000
3E0000
1c0000
000000
1ffe00
3FFF00
1ffe00
000000
1c0000
3E0000
1c0000
000000
1c0000
3E0000
1c0000
000000
1fffc0
3FFFE0
1fffc0
000000
000000
000000
000000
ENDCHAR

STARTCHAR F
ENCODING 70
SWIDTH 672 0
DWIDTH 21 0
BBX 21 32 0 -4
BITMAP
000000
1fffc0
3FFFE0
1fffc0
000000
1c0000
3E0000
1c0000
000000
1c0000
3E0000
1c0000
000000
1ffe00
3FFF00
1ffe00
000000
1c0000
3E0000
1c0000
000000
1c0000
3E0000
1c0000
000000
1c0000
3E0000
1c0000
000000
000000
000000
000000
ENDCHAR

STARTCHAR G
ENCODING 71
SWIDTH 672 0
DWIDTH 21 0
BBX 21 32 0 -4
BITMAP
000000
03fe00
07FF00
03fe00
000000
1c01c0
3E03E0
1c01c0
000000
1c0000
3E0000
1c0000
000000
1c0000
3E0000
1c0000
000000
1c0fc0
3E1FE0
1c0fc0
000000
1c01c0
3E03E0
1c01c0
000000
03ffc0
07FFE0
03ffc0
000000
000000
000000
000000
ENDCHAR

STARTCHAR H
ENCODING 72
SWIDTH 672 0
DWIDTH 21 0
BBX 21 32 0 -4
BITMAP
000000
1c01c0
3E03E0
1c01c0
000000
1c01c0
3E03E0
1c01c0
000000
1c01c0
3E03E0
1c01c0
000000
1fffc0
3FFFE0
1fffc0
000000
1c01c0
3E03E0
1c01c0
000000
1c01c0
3E03E0
1c01c0
000000
1c01c0
3E03E0
1c01c0
000000
000000
000000
000000
ENDCHAR

STARTCHAR I
ENCODING 73
SWIDTH 672 0
DWIDTH 21 0
BBX 21 32 0 -4
BITMAP
000000
03fe00
07FF00
03fe00
000000
007000
00F800
007000
000000
007000
00F800
007000
000000
007000
00F800
007000
000000
007000
00F800
007000
000000
007000
00F800
007000
000000
03fe00
07FF00
03fe00
000000
000000
000000
000000
ENDCHAR

STARTCHAR J
ENCODING 74
SWIDTH 672 0
DWIDTH 21 0
BBX 21 32 0 -4
BITMAP
000000
0001c0
0003E0
0001c0
000000
0001c0
0003E0
0001c0
000000
0001c0
0003E0
0001c0
000000
0001c0
0003E0
0001c0
000000
0001c0
0003E0
0001c0
000000
1c01c0
3E03E0
1c01c0
000000
03fe00
07FF00
03fe00
000000
000000
000000
000000
ENDCHAR

STARTCHAR K
ENCODING 75
SWIDTH 672 0
DWIDTH 21 0
BBX 21 32 0 -4
BITMAP
000000
1c01c0
3E03E0
1c01c0
000000
1c0e00
3E1F00
1c0e00
000000
1c7000
3EF800
1c7000
000000
1f8000
3FC000
1f8000
000000
1c7000
3EF800
1c7000
000000
1c0e00
3E1F00
1c0e00
000000
1c01c0
3E03E0
1c01c0
000000
000000
000000
000000
ENDCHAR

STARTCHAR L
ENCODING 76
SWIDTH 672 0
DWIDTH 21 0
BBX 21 32 0 -4
BITMAP
000000
1c0000
3E0000
1c0000
000000
1c0000
3E0000
1c0000
000000
1c0000
3E0000
1c0000
000000
1c0000
3E0000
1c0000
000000
1c0000
3E0000
1c0000
000000
1c0000
3E0000
1c0000
000000
1fffc0
3FFFE0
1fffc0
000000
000000
000000
000000
ENDCHAR

STARTCHAR M
ENCODING 77
SWIDTH 672 0
DWIDTH 21 0
BBX 21 32 0 -4
BITMAP
000000
1c01c0
3E03E0
1c01c0
000000
1f8fc0
3FDFE0
1f8fc0
000000
1c71c0
3EFBE0
1c71c0
000000
1c71c0
3EFBE0
1c71c0
000000
1c01c0
3E03E0
1c01c0
000000
1c01c0
3E03E0
1c01c0
000000
1c01c0
3E03E0
1c01c0
000000
000000
000000
000000
ENDCHAR

STARTCHAR N
ENCODING 78
SWIDTH 672 0
DWIDTH 21 0
BBX 21 32 0 -4
BITMAP
000000
1c01c0
3E03E0
1c01c0
000000
1c01c0
3E03E0
1c01c0
000000
1f81c0
3FC3E0
1f81c0
000000
1c71c0
3EFBE0
1c71c0
000000
1c0fc0
3E1FE0
1c0fc0
000000
1c01c0
3E03E0
1c01c0
000000
1c01c0
3E03E0
1c01c0
000000
000000
000000
000000
ENDCHAR

STARTCHAR O
ENCODING 79
SWIDTH 672 0
DWIDTH 21 0
BBX 21 32 0 -4
BITMAP
000000
03fe00
07FF00
03fe00
000000
1c01c0
3E03E0
1c01c0
000000
1c01c0
3E03E0
1c01c0
000000
1c01c0
3E03E0
1c01c0
000000
1c01c0
3E03E0
1c01c0
000000
1c01c0
3E03E0
1c01c0
000000
03fe00
07FF00
03fe00
000000
000000
000000
000000
ENDCHAR

STARTCHAR P
ENCODING 80
SWIDTH 672 0
DWIDTH 21 0
BBX 21 32 0 -4
BITMAP
000000
1ffe00
3FFF00
1ffe00
000000
1c01c0
3E03E0
1c01c0
000000
1c01c0
3E03E0
1c01c0
000000
1ffe00
3FFF00
1ffe00
000000
1c0000
3E0000
1c0000
000000
1c0000
3E0000
1c0000
000000
1c0000
3E0000
1c0000
000000
000000
000000
000000
ENDCHAR

STARTCHAR Q
ENCODING 81
SWIDTH 672 0
DWIDTH 21 0
BBX 21 32 0 -4
BITMAP
000000
03fe00
07FF00
03fe00
000000
1c01c0
3E03E0
1c01c0
000000
1c01c0
3E03E0
1c01c0
000000
1c01c0
3E03E0
1c01c0
000000
1c71c0
3EFBE0
1c71c0
000000
1c0e00
3E1F00
1c0e00
000000
03f1c0
07FBE0
03f1c0
000000
000000
000000
000000
ENDCHAR

STARTCHAR R
ENCODING 82
SWIDTH 672 0
DWIDTH 21 0
BBX 21 32 0 -4
BITMAP
000000
1ffe00
3FFF00
1ffe00
000000
1c01c0
3E03E0
1c01c0
000000
1c01c0
3E03E0
1c01c0
000000
1ffe00
3FFF00
1ffe00
000000
1c7000
3EF800
1c7000
000000
1c0e00
3E1F00
1c0e00
000000
1c01c0
3E03E0
1c01c0
000000
000000
000000
000000
ENDCHAR

STARTCHAR S
ENCODING 83
SWIDTH 672 0
DWIDTH 21 0
BBX 21 32 0 -4
BITMAP
000000
03fe00
07FF00
03fe00
000000
1c01c0
3E03E0
1c01c0
000000
1c0000
3E0000
1c0000
000000
03fe00
07FF00
03fe00
000000
0001c0
0003E0
0001c0
000000
1c01c0
3E03E0
1c01c0
000000
03fe00
07FF00
03fe00
000000
000000
000000
000000
ENDCHAR

STARTCHAR T
ENCODING 84
SWIDTH 672 0
DWIDTH 21 0
BBX 21 32 0 -4
BITMAP
000000
1fffc0
3FFFE0
1fffc0
000000
007000
00F800
007000
000000
007000
00F800
007000
000000
007000
00F800
007000
000000
007000
00F800
007000
000000
007000
00F800
007000
000000
007000
00F800
007000
000000
000000
000000
000000
ENDCHAR

STARTCHAR U
ENCODING 85
SWIDTH 672 0
DWIDTH 21 0
BBX 21 32 0 -4
BITMAP
000000
1c01c0
3E03E0
1c01c0
000000
1c01c0
3E03E0
1c01c0
000000
1c01c0
3E03E0
1c01c0
000000
1c01c0
3E03E0
1c01c0
000000
1c01c0
3E03E0
1c01c0
000000
1c01c0
3E03E0
1c01c0
000000
03fe00
07FF00
03fe00
000000
000000
000000
000000
ENDCHAR

STARTCHAR V
ENCODING 86
SWIDTH 672 0
DWIDTH 21 0
BBX 21 32 0 -4
BITMAP
000000
1c01c0
3E03E0
1c01c0
000000
1c01c0
3E03E0
1c01c0
000000
1c01c0
3E03E0
1c01c0
000000
1c01c0
3E03E0
1c01c0
000000
1c01c0
3E03E0
1c01c0
000000
038e00
07DF00
038e00
000000
007000
00F800
007000
000000
000000
000000
000000
ENDCHAR

STARTCHAR W
ENCODING 87
SWIDTH 672 0
DWIDTH 21 0
BBX 21 32 0 -4
BITMAP
000000
1c01c0
3E03E0
1c01c0
000000
1c01c0
3E03E0
1c01c0
000000
1c01c0
3E03E0
1c01c0
000000
1c71c0
3EFBE0
1c71c0
000000
1c71c0
3EFBE0
1c71c0
000000
1f8fc0
3FDFE0
1f8fc0
000000
1c01c0
3E03E0
1c01c0
000000
000000
000000
000000
ENDCHAR

STARTCHAR X
ENCODING 88
SWIDTH 672 0
DWIDTH 21 0
BBX 21 32 0 -4
BITMAP
000000
1c01c0
3E03E0
1c01c0
000000
1c01c0
3E03E0
1c01c0
000000
038e00
07DF00
038e00
000000
007000
00F800
007000
000000
038e00
07DF00
038e00
000000
1c01c0
3E03E0
1c01c0
000000
1c01c0
3E03E0
1c01c0
000000
000000
000000
000000
ENDCHAR

STARTCHAR Y
ENCODING 89
SWIDTH 672 0
DWIDTH 21 0
BBX 21 32 0 -4
BITMAP
000000
1c01c0
3E03E0
1c01c0
000000
1c01c0
3E03E0
1c01c0
000000
038e00
07DF00
038e00
000000
007000
00F800
007000
000000
007000
00F800
007000
000000
007000
00F800
007000
000000
007000
00F800
007000
000000
000000
000000
000000
ENDCHAR

STARTCHAR Z
ENCODING 90
SWIDTH 672 0
DWIDTH 21 0
BBX 21 32 0 -4
BITMAP
000000
1fffc0
3FFFE0
1fffc0
000000
0001c0
0003E0
0001c0
000000
000e00
001F00
000e00
000000
007000
00F800
007000
000000
038000
07C000
038000
000000
1c0000
3E0000
1c0000
000000
1fffc0
3FFFE0
1fffc0
000000
000000
000000
000000
ENDCHAR

STARTCHAR space
ENCODING 32
SWIDTH 672 0
DWIDTH 21 0
BBX 21 32 0 -4
BITMAP
000000
000000
000000
000000
000000
000000
000000
000000
000000
000000
000000
000000
000000
000000
000000
000000
000000
000000
000000
000000
000000
000000
000000
000000
000000
000000
000000
000000
000000
000000
000000
000000
ENDCHAR

ENDFONT
